<svg viewBox="0.6756756756756754 -2.4399999999999995 99.45945945945947 104.22" version="1.1" xmlns="http://www.w3.org/2000/svg" style="max-height: 500px" width="99.45945945945947" height="104.22">
 <path d="m60.977 32.289c-2.8867 0-5.3047 1.9297-6.1016 4.5625-1.9883-0.80859-4.1992-0.80859-6.1875 0-0.79688-2.6289-3.2148-4.5625-6.1016-4.5625-3.5273 0-6.4023 2.8711-6.4023 6.4023s2.875 6.4023 6.4023 6.4023c3.332 0 6.0469-2.5664 6.3438-5.8242 1.7812-0.97656 3.9141-0.97656 5.6992 0 0.30078 3.2539 3.0117 5.8242 6.3438 5.8242 3.5273 0 6.4023-2.8711 6.4023-6.4023 0.003906-3.5312-2.8672-6.4023-6.3984-6.4023zm-18.387 10.504c-2.2656 0-4.1055-1.8438-4.1055-4.1055s1.8398-4.1055 4.1055-4.1055 4.1055 1.8438 4.1055 4.1055c-0.003906 2.2656-1.8438 4.1055-4.1055 4.1055zm18.387 0c-2.2656 0-4.1055-1.8438-4.1055-4.1055s1.8398-4.1055 4.1055-4.1055c2.2617 0 4.1055 1.8438 4.1055 4.1055-0.003906 2.2656-1.8438 4.1055-4.1055 4.1055z"/>
 <path d="m58.402 37.375c0-1.4219 1.1523-2.5703 2.5742-2.5703 1.4219 0 2.5703 1.1523 2.5703 2.5703z"/>
 <path d="m40.02 37.375c0-1.4219 1.1484-2.5703 2.5703-2.5703s2.5742 1.1523 2.5742 2.5703z"/>
 <path d="m46.527 31.961c-0.29297 0-0.58984-0.11328-0.8125-0.33594l-0.97656-0.97656h-2.1484c-0.63672 0-1.1484-0.51563-1.1484-1.1484 0-0.63672 0.51172-1.1484 1.1484-1.1484h2.6289c0.30469 0 0.59766 0.12109 0.8125 0.33594l1.3125 1.3125c0.44922 0.44922 0.44922 1.1758 0 1.625-0.22656 0.22266-0.51953 0.33594-0.81641 0.33594z"/>
 <path d="m57.035 31.961c-0.29688 0-0.58984-0.11328-0.8125-0.33594-0.44922-0.44922-0.44922-1.1758 0-1.625l1.3125-1.3125c0.21484-0.21484 0.50781-0.33594 0.8125-0.33594h2.6289c0.63672 0 1.1484 0.51563 1.1484 1.1484 0 0.63672-0.51172 1.1484-1.1484 1.1484h-2.1484l-0.97656 0.97656c-0.22656 0.22266-0.52344 0.33594-0.81641 0.33594z"/>
 <path d="m77.512 31.273-0.16406-0.16016c-0.91797-0.91797-2.2227-1.25-3.4688-0.95312l-1.1055-9.9766c-0.18359-1.6289-0.66406-3.2539-1.4023-4.7031-1.9883-3.9141-7.1758-10.48-19.59-10.48-12.41 0-17.598 6.5664-19.586 10.48-0.74609 1.4688-1.2148 3.0508-1.3984 4.7031l-1.1094 9.9766c-1.2461-0.29688-2.5508 0.03125-3.4688 0.95312l-0.16016 0.16016c-1.1406 1.1367-1.5078 2.8477-0.94531 4.3555l2.2383 5.9688c0.76953 2.0469 2.2656 3.7109 4.2227 4.6875 0.16406 0.082032 0.33984 0.12109 0.51172 0.12109 0.42187 0 0.82812-0.23438 1.0273-0.63672 0.28125-0.57031 0.054688-1.2578-0.51562-1.543-1.4336-0.71484-2.5312-1.9375-3.0938-3.4375l-2.2383-5.9688c-0.25-0.66406-0.085937-1.4219 0.41797-1.9258l0.16406-0.16016c0.375-0.37891 0.92188-0.50781 1.4297-0.33594l2.4453 0.81641c0.60156 0.20312 1.2539-0.125 1.4531-0.72656 0.19922-0.60156-0.125-1.2539-0.72656-1.4531l-0.52734-0.17578 1.1562-10.422c0.15234-1.3789 0.54688-2.6914 1.1641-3.9141 1.75-3.4453 6.3516-9.2227 17.539-9.2227s15.789 5.7773 17.539 9.2227c0.60938 1.207 1.0156 2.5586 1.1641 3.9141l1.1562 10.422-0.52344 0.17578c-0.60156 0.19922-0.92969 0.85156-0.72656 1.4531 0.19922 0.60156 0.85156 0.92969 1.4531 0.72656l2.4453-0.81641c0.50781-0.16797 1.0547-0.039063 1.4336 0.33594l0.16016 0.16016c0.50391 0.50391 0.66797 1.2617 0.41797 1.9258l-2.2344 5.9688c-0.5625 1.5-1.6641 2.7227-3.0938 3.4375-0.56641 0.28516-0.80078 0.97656-0.51562 1.543 0.19922 0.40234 0.60547 0.63672 1.0273 0.63672 0.17188 0 0.34766-0.039062 0.51172-0.12109 1.9531-0.97656 3.4531-2.6406 4.2227-4.6875l2.2344-5.9688c0.56641-1.5078 0.19531-3.2188-0.94141-4.3555z"/>
 <path d="m54.633 46.656-2.0391 2.0391c-0.22656 0.22266-0.51562 0.33594-0.8125 0.33594s-0.58984-0.11328-0.8125-0.33594l-2.0391-2.0391c-2.5859 0.35156-5.5039 1.2422-7.6562 3.207 0 0 0.77734 2.457 1.9727 2.0234 0 0 0.51953-0.16797 1.3867-0.38672l1.0508 0.63281c1.8789 1.1289 3.9883 1.6914 6.0977 1.6914 2.1055 0 4.2188-0.5625 6.0977-1.6914l1.0508-0.63281c0.86719 0.21484 1.3867 0.38672 1.3867 0.38672 1.1953 0.4375 1.9727-2.0234 1.9727-2.0234-2.1484-1.9648-5.0664-2.8516-7.6562-3.207zm-6.418 4.1641c1.1016-0.14844 2.3164-0.25 3.5703-0.25s2.4648 0.10156 3.5703 0.25c-2.293 0.92578-4.8477 0.92578-7.1406 0z"/>
 <path d="m44.32 95c-0.34375 0-0.67969-0.15234-0.90625-0.44531-4.0234-5.1719-10.98-12.812-16.109-18.309-0.43359-0.46484-0.40625-1.1914 0.058593-1.625 0.46484-0.43359 1.1875-0.41016 1.625 0.058594 5.1602 5.5312 12.172 13.227 16.242 18.465 0.39062 0.5 0.30078 1.2227-0.19922 1.6094-0.21484 0.16797-0.46484 0.24609-0.71094 0.24609z"/>
 <path d="m92.922 75.32-0.35938-1.0156c-0.80859-2.2969-2.2891-4.25-4.2812-5.6484l-12.195-8.5781c-0.16406-0.11328-0.35156-0.16406-0.53906-0.1875l-1.6211-5.6562c-0.37891-1.9688-2.5234-3.793-4.3516-4.6562l-0.23047-0.10547c-0.31641-0.14844-0.68359-0.14453-0.99609 0.011719-0.3125 0.15234-0.53906 0.44531-0.61328 0.78516-0.011719 0.058594-1.3086 5.7891-6.3203 9.1797-4.4453 3.0078-6.793 8.9062-7.6875 11.648-5.3203-4.4961-10.348-9.0273-14.211-13.461-3.7148-4.2617-3.6602-7.0352-3.6602-7.0469 0.023437-0.38281-0.14062-0.75391-0.44531-0.98828-0.30469-0.23437-0.70312-0.30469-1.0664-0.18359l-2.7383 0.91406c-0.95703 0.31641-1.8359 0.86328-2.5469 1.5742l-2.8906 2.8906c-1.8828 1.8828-3.6445 3.9102-5.2344 6.0312-0.007813 0.007813-0.015625 0.015625-0.019532 0.027344-0.99609 1.3281-1.6094 2.9336-1.7656 4.5898-1.6172 0.57422-5.6211 2.0117-8.9414 3.3516-1.0742 0.43359-2.0352 1.0664-2.8594 1.8828-0.44922 0.44922-0.45312 1.1758-0.003906 1.625 0.44531 0.44922 1.1758 0.45312 1.625 0.003906 0.60156-0.59766 1.3086-1.0625 2.0977-1.3828 2.8242-1.1367 6.1484-2.3477 8.043-3.0273v2.3125c0 0.63672 0.51562 1.1484 1.1484 1.1484 0.63672 0 1.1484-0.51172 1.1484-1.1484v-3.9375c0-1.4375 0.47266-2.8633 1.3281-4.0156 0.007813-0.007812 0.015625-0.019531 0.019531-0.027343 1.5312-2.0391 3.2266-3.9922 5.0391-5.8086l2.8906-2.8867c0.45703-0.46094 1.0273-0.8125 1.6484-1.0195l1.4102-0.46875c0.35156 1.5117 1.332 3.9922 4.0391 7.1016 5.9062 6.7812 14.73 14.008 22.516 20.379 4.8125 3.9375 9.3555 7.6602 12.902 10.988 0.21875 0.20703 0.50391 0.30859 0.78516 0.30859 0.30469 0 0.60938-0.12109 0.83984-0.35938 0.43359-0.46484 0.41016-1.1914-0.054688-1.625-3.6016-3.3828-8.1758-7.1289-13.02-11.094-2.0352-1.668-4.0898-3.3477-6.1133-5.0391 0.49219-1.707 2.6602-8.3789 7.0625-11.355 4.1914-2.8359 6.0977-6.9688 6.8516-9.1445 1.0195 0.69141 1.9648 1.6758 2.1367 2.5586l2.6289 9.1914c0.17578 0.60938 0.80859 0.96094 1.4219 0.78906 0.60938-0.17578 0.96484-0.80859 0.78906-1.4219l-0.046875-0.16016 10.477 7.3672c1.5977 1.1211 2.7852 2.6914 3.4375 4.5312l0.35938 1.0195c0.16406 0.46875 0.60938 0.76562 1.082 0.76562 0.12891 0 0.25391-0.019531 0.38281-0.0625 0.59766-0.21094 0.91016-0.86719 0.70312-1.4648z"/>
<text fill="#000000" font-family="Arbeit Regular, Helvetica, Arial-Unicode, Arial, Sans-serif" font-weight="bold" font-size="5.0" y="117.5" x="0.0">Created by Olivier Guin</text><text fill="#000000" font-family="Arbeit Regular, Helvetica, Arial-Unicode, Arial, Sans-serif" font-weight="bold" font-size="5.0" y="122.5" x="0.0">from Noun Project</text></svg>